<svg width="20" height="20" viewBox="0 0 20 20" fill="none" xmlns="http://www.w3.org/2000/svg">
<g clip-path="url(#clip0_211_6)">
<path d="M2.92984 17.07C1.97473 16.1475 1.21291 15.0441 0.688821 13.824C0.164731 12.604 -0.111131 11.2918 -0.122669 9.96402C-0.134207 8.63622 0.11881 7.31943 0.621618 6.09046C1.12443 4.8615 1.86696 3.74498 2.80589 2.80605C3.74481 1.86713 4.86133 1.1246 6.09029 0.621786C7.31926 0.118977 8.63605 -0.13404 9.96385 -0.122501C11.2916 -0.110963 12.6038 0.164899 13.8239 0.688989C15.0439 1.21308 16.1474 1.9749 17.0698 2.93C18.8914 4.81602 19.8994 7.34205 19.8766 9.96402C19.8538 12.586 18.8021 15.0941 16.948 16.9482C15.0939 18.8023 12.5858 19.854 9.96385 19.8767C7.34188 19.8995 4.81586 18.8916 2.92984 17.07ZM11.3998 10L14.2298 7.17L12.8198 5.76L9.99984 8.59L7.16984 5.76L5.75984 7.17L8.58984 10L5.75984 12.83L7.16984 14.24L9.99984 11.41L12.8298 14.24L14.2398 12.83L11.4098 10H11.3998Z" fill="#303030"/>
</g>
<defs>
<clipPath id="clip0_211_6">
<rect width="20" height="20" fill="white"/>
</clipPath>
</defs>
</svg>
