<svg width="24" height="24" viewBox="0 0 24 24" fill="none" xmlns="http://www.w3.org/2000/svg">
<path d="M4 19H8.6L2.62 8.64C2.23 8 2 7.29 2 6.5C2.00089 5.52733 2.35625 4.58834 2.99956 3.85879C3.64287 3.12925 4.53001 2.65917 5.49492 2.53656C6.45983 2.41396 7.43634 2.64723 8.24166 3.1927C9.04698 3.73818 9.62588 4.55847 9.87 5.5H14V3C14 1.9 14.9 1 16 1V3.59L17.59 2H22V4H18.41L16 6.41V6.59L18.41 9H22V11H17.59L16 9.41V12C15.4696 12 14.9609 11.7893 14.5858 11.4142C14.2107 11.0391 14 10.5304 14 10V7.5H9.87C9.77 7.89 9.61 8.26 9.41 8.6L15.41 19H20C20.5304 19 21.0391 19.2107 21.4142 19.5858C21.7893 19.9609 22 20.4696 22 21V22H2V21C2 19.9 2.9 19 4 19ZM7.91 10C7.35 10.32 6.7 10.5 6 10.5L10.91 19H13.1L7.91 10ZM6 4.5C5.46957 4.5 4.96086 4.71071 4.58579 5.08579C4.21071 5.46086 4 5.96957 4 6.5C4 7.61 4.89 8.5 6 8.5C7.11 8.5 8 7.61 8 6.5C8 5.96957 7.78929 5.46086 7.41421 5.08579C7.03914 4.71071 6.53043 4.5 6 4.5Z" fill="black"/>
</svg>
