<svg width="18" height="20" viewBox="0 0 18 20" fill="none" xmlns="http://www.w3.org/2000/svg">
<path d="M3.375 20C2.75625 20 2.22675 19.7826 1.7865 19.3478C1.34625 18.913 1.12575 18.3896 1.125 17.7778V3.33333C0.806254 3.33333 0.539254 3.22667 0.324004 3.01333C0.108754 2.8 0.000753879 2.5363 3.8793e-06 2.22222C-0.00074612 1.90815 0.107254 1.64444 0.324004 1.43111C0.540754 1.21778 0.807754 1.11111 1.125 1.11111H5.625C5.625 0.796296 5.733 0.532593 5.949 0.32C6.165 0.107408 6.432 0.000740741 6.75 0H11.25C11.5687 0 11.8361 0.106667 12.0521 0.32C12.2681 0.533333 12.3757 0.797037 12.375 1.11111H16.875C17.1937 1.11111 17.4611 1.21778 17.6771 1.43111C17.8931 1.64444 18.0007 1.90815 18 2.22222C17.9992 2.5363 17.8912 2.80037 17.676 3.01444C17.4607 3.22852 17.1937 3.33481 16.875 3.33333V17.7778C16.875 18.3889 16.6549 18.9122 16.2146 19.3478C15.7744 19.7833 15.2445 20.0007 14.625 20H3.375ZM14.625 3.33333H3.375V17.7778H14.625V3.33333ZM6.75 15.5556C7.06875 15.5556 7.33613 15.4489 7.55213 15.2356C7.76813 15.0222 7.87575 14.7585 7.875 14.4444V6.66667C7.875 6.35185 7.767 6.08815 7.551 5.87556C7.335 5.66296 7.068 5.5563 6.75 5.55556C6.432 5.55481 6.165 5.66148 5.949 5.87556C5.733 6.08963 5.625 6.35333 5.625 6.66667V14.4444C5.625 14.7593 5.733 15.0233 5.949 15.2367C6.165 15.45 6.432 15.5563 6.75 15.5556ZM11.25 15.5556C11.5687 15.5556 11.8361 15.4489 12.0521 15.2356C12.2681 15.0222 12.3757 14.7585 12.375 14.4444V6.66667C12.375 6.35185 12.267 6.08815 12.051 5.87556C11.835 5.66296 11.568 5.5563 11.25 5.55556C10.932 5.55481 10.665 5.66148 10.449 5.87556C10.233 6.08963 10.125 6.35333 10.125 6.66667V14.4444C10.125 14.7593 10.233 15.0233 10.449 15.2367C10.665 15.45 10.932 15.5563 11.25 15.5556Z" fill="white"/>
</svg>
