<svg width="18" height="18" viewBox="0 0 18 18" fill="none" xmlns="http://www.w3.org/2000/svg">
<g clip-path="url(#clip0_74_275)">
<path d="M0 0V18H18V6.36438L15.0469 9.3175V15.0469H2.95312V2.95312H8.6825L11.6356 0H0ZM15.75 0L14.5975 1.15246L16.8475 3.40246L18 2.25L15.75 0ZM14.0537 1.69629L7.45752 8.29248L9.70752 10.5425L16.3037 3.94629L14.0537 1.69629ZM6.62914 9.33508C6.59577 9.33559 6.56175 9.33801 6.52807 9.34058V11.4719H8.65942C8.65942 10.8913 8.38204 10.3013 7.94972 9.88879C7.59208 9.54753 7.12959 9.32737 6.62914 9.33508Z" fill="white"/>
</g>
<defs>
<clipPath id="clip0_74_275">
<rect width="18" height="18" fill="white"/>
</clipPath>
</defs>
</svg>
