<svg width="20" height="18" viewBox="0 0 20 18" fill="none" xmlns="http://www.w3.org/2000/svg">
<path d="M7.00293 8.5C6.6051 8.5 6.22271 8.65815 5.94141 8.93945C5.66027 9.22073 5.50293 9.60231 5.50293 10V12L5.50977 12.1484C5.54388 12.4916 5.69547 12.8145 5.94141 13.0605C6.22271 13.3419 6.6051 13.5 7.00293 13.5C7.4006 13.4999 7.78227 13.3418 8.06348 13.0605C8.34465 12.7793 8.50293 12.3977 8.50293 12V10C8.50293 9.60227 8.34465 9.22074 8.06348 8.93945C7.78227 8.65825 7.4006 8.50011 7.00293 8.5ZM13.0029 8.5C12.6051 8.5 12.2227 8.65815 11.9414 8.93945C11.6603 9.22073 11.5029 9.60231 11.5029 10V12C11.5029 12.3977 11.6603 12.7793 11.9414 13.0605C12.2227 13.3419 12.6051 13.5 13.0029 13.5C13.4006 13.4999 13.7823 13.3418 14.0635 13.0605C14.3446 12.7793 14.5029 12.3977 14.5029 12V10C14.5029 9.60227 14.3446 9.22074 14.0635 8.93945C13.7823 8.65825 13.4006 8.50011 13.0029 8.5ZM9.50293 3.44238L9.25293 3.29785C8.96782 3.13241 8.74496 2.87695 8.61914 2.57227C8.49343 2.26761 8.47227 1.92966 8.55762 1.61133C8.64304 1.293 8.83048 1.01141 9.0918 0.810547C9.35283 0.60991 9.67275 0.500898 10.002 0.5C10.3315 0.500656 10.6518 0.609723 10.9131 0.810547C11.1745 1.01145 11.3628 1.29291 11.4482 1.61133C11.5336 1.92968 11.5115 2.2676 11.3857 2.57227C11.2599 2.87698 11.0371 3.13241 10.752 3.29785L10.5029 3.44238V4.5H14.0029C14.931 4.50011 15.8213 4.86911 16.4775 5.52539C17.1338 6.18175 17.5029 7.07184 17.5029 8V8.45801L17.9023 8.54004C18.3537 8.63269 18.7595 8.87829 19.0508 9.23535C19.342 9.59247 19.501 10.0392 19.501 10.5C19.501 10.9608 19.342 11.4075 19.0508 11.7646C18.7595 12.1217 18.3537 12.3673 17.9023 12.46L17.5029 12.542V14C17.5029 14.9282 17.1338 15.8183 16.4775 16.4746C15.8213 17.1309 14.931 17.4999 14.0029 17.5H6.00293C5.07467 17.5 4.18372 17.131 3.52734 16.4746C2.87114 15.8183 2.50293 14.9281 2.50293 14V12.541L2.10156 12.46C1.64962 12.3681 1.24304 12.1227 0.951172 11.7656C0.659307 11.4085 0.5 10.9613 0.5 10.5C0.5 10.0387 0.659307 9.59155 0.951172 9.23438C1.24304 8.87728 1.64962 8.63191 2.10156 8.54004L2.50293 8.45898V8C2.50293 7.07187 2.87114 6.18174 3.52734 5.52539C4.18372 4.86901 5.07467 4.5 6.00293 4.5H9.50293V3.44238Z" fill="#FF2525" stroke="white"/>
</svg>
